/* XPM */
static char *icon48x48[] = {
/* columns rows colors chars-per-pixel */
"48 48 177 2",
"   c #000000",
".  c #0B0000",
"X  c #0B0B0B",
"o  c #130101",
"O  c #1A0202",
"+  c #180909",
"@  c #131313",
"#  c #1B1B1B",
"$  c #230202",
"%  c #220B0B",
"&  c #2B0000",
"*  c #290909",
"=  c #340101",
"-  c #320909",
";  c #3B0303",
":  c #3C0808",
">  c gray14",
",  c #2A2A2A",
"<  c #333333",
"1  c #393939",
"2  c #430101",
"3  c #430909",
"4  c #4B0000",
"5  c #4E1414",
"6  c #4B1C1C",
"7  c #560000",
"8  c #510A0A",
"9  c #5A0202",
"0  c #5D0B0B",
"q  c #531C1C",
"w  c #5E1212",
"e  c #5E1919",
"r  c #620000",
"t  c #620B0B",
"y  c #6C0202",
"u  c #6A0A0A",
"i  c #6A1111",
"p  c #740000",
"a  c #730B0B",
"s  c #7B0000",
"d  c #7D0C0C",
"f  c #7A1111",
"g  c #781C1C",
"h  c #7D2A2A",
"j  c #444444",
"k  c #4B4B4B",
"l  c #535353",
"z  c #5D5D5D",
"x  c #636363",
"c  c #6B6B6B",
"v  c gray45",
"b  c #7B7B7B",
"n  c #820000",
"m  c #820A0A",
"M  c #8B0101",
"N  c #8B0909",
"B  c #841515",
"V  c #861919",
"C  c #8B1515",
"Z  c #950202",
"A  c #920E0E",
"S  c #9B0000",
"D  c #9A0D0D",
"F  c #9E1313",
"G  c #981E1E",
"H  c #862525",
"J  c #802B2B",
"K  c #932525",
"L  c #9C2929",
"P  c #A10000",
"I  c #A50C0C",
"U  c #AD0303",
"Y  c #A80D0D",
"T  c #A31212",
"R  c #AD1111",
"E  c #A81D1D",
"W  c #B00303",
"Q  c #B30F0F",
"!  c #B80707",
"~  c #BB0808",
"^  c #B31010",
"/  c #BC1313",
"(  c #BA1D1D",
")  c #A22E2E",
"_  c #A53C3C",
"`  c #AD3C3C",
"'  c #B02121",
"]  c #B42828",
"[  c #BD2C2C",
"{  c #BD3131",
"}  c #B44343",
"|  c #C30E0E",
" . c #C80000",
".. c #CA0F0F",
"X. c #C31313",
"o. c #C11B1B",
"O. c #CE1515",
"+. c #CA1919",
"@. c #D30000",
"#. c #D00E0E",
"$. c #DB0000",
"%. c #D61212",
"&. c #D61B1B",
"*. c #DA1616",
"=. c #D91919",
"-. c #C23131",
";. c #D62323",
":. c #D62B2B",
">. c #D92323",
",. c #D92C2C",
"<. c #D73333",
"1. c #D73838",
"2. c #D83333",
"3. c #D93939",
"4. c #E30101",
"5. c #E90303",
"6. c #EA0E0E",
"7. c #E21414",
"8. c #E41C1C",
"9. c #E91616",
"0. c #EA1E1E",
"q. c #F20B0B",
"w. c #F90505",
"e. c #FC0B0B",
"r. c #F51515",
"t. c #F31F1F",
"y. c #FE1414",
"u. c #FE1C1C",
"i. c #E22020",
"p. c #E12A2A",
"a. c #ED2121",
"s. c #EF2B2B",
"d. c #E13A3A",
"f. c #E93232",
"g. c #F22222",
"h. c #FE2323",
"j. c #FE2A2A",
"k. c #F73131",
"l. c #F13C3C",
"z. c #FE3333",
"x. c #FE3B3B",
"c. c #D44A4A",
"v. c #D94B4B",
"b. c #D95252",
"n. c #DA5A5A",
"m. c #E64141",
"M. c #E55B5B",
"N. c #EF5C5C",
"B. c #F24242",
"V. c #FF4343",
"C. c #FE4B4B",
"Z. c #F45A5A",
"A. c #FE5454",
"S. c #FE5C5C",
"D. c #FF6363",
"F. c #FE6C6C",
"G. c #FF7373",
"H. c #FF7B7B",
"J. c #838383",
"K. c #8A8A8A",
"L. c #929292",
"P. c #9B9B9B",
"I. c #A3A3A3",
"U. c gray67",
"Y. c #B3B3B3",
"T. c #BBBBBB",
"R. c #FF8383",
"E. c #FF8A8A",
"W. c #FF9090",
"Q. c gray77",
"!. c #CACACA",
"~. c #D6D6D6",
"^. c #DBDBDB",
"/. c #E3E3E3",
"(. c #EAEAEA",
"). c #F4F4F4",
"_. c #FEFEFE",
/* pixels */
" . . . . . . . . . . . . . . . . . . . . . . . . . . . . . . . . . . . . . . . . . . . . . . . .",
" . . . . . . . . . . . . . . . . . . . . . . . . . . . . . . . . . . . . . . . . . . . . . . . .",
" . . . . . . . . . . . . . . . . . . . . . . . . . . . . . . . . . . . . . . . . . . . . . . . .",
" . . . . . . . . . . . . . . . . . . . . . . . . . . . . . . . . . . . . . . . . . . . . . . . .",
"5.5.5.5.5.5.4.5.5.4.4.4.5.4.4.4.4.4.4.4.$.4.4.$.$.$.$.$.@.@.$.$.@.@.@.@.@.@.@.@.@.@.@.@. . . . .",
"V.x.x.x.x.x.z.z.z.z.z.j.j.j.j.j.j.j.h.h.u.u.h.y.y.u.y.y.y.y.y.y.y.e.e.e.e.e.e.e.e.w.w.w.w.w.w.w.",
"R.H.H.G.G.G.F.F.D.D.D.S.S.A.A.A.C.C.C.C.C.C.V.V.C.x.x.x.x.z.z.z.j.z.j.j.j.j.j.j.j.h.h.j.j.j.j.x.",
"W.E.E.R.R.H.H.H.H.G.G.F.G.F.F.F.D.D.D.D.S.S.A.A.A.A.A.C.C.C.C.C.V.C.C.C.x.x.x.x.x.x.x.d.l.x.H L ",
"E.E.R.R.H.H.H.H.H.G.G.G.G.F.F.F.F.D.F.D.D.D.D.S.S.S.S.A.A.A.C.z.z.x.x.x.x.z.] V =.h.C   ' x.. K ",
"H.H.H.H.H.G.G.G.G.G.G.G.F.G.F.F.F.F.D.D.S.D.D.S.z.z.z.x.x.V.V.B.) g t h.h.8.    +.j.u   :.f.  [ ",
"H.G.G.G.G.G.G.G.G.G.F.F.F.F.S.V.V.V.C.C.A.A.S.A.m.-.G R u.y.y.T     O u.u.(     0.h.3   k.[   B ",
"G.G.G.F.F.D.D.S.D.D.D.D.D.D.C.y.y.y.y.u.y.y.t.+       u u.u.u.A     3 u.u.F   o h.h.O . d 4 . 4 ",
"G.u.j.z.x.C.A.S.S.S.S.N.c._ h q : r.y.y.y.y.8.        d u.u.u.d     0 h.h.d   o D Y . . $ O = n ",
"F.y.y.y.y.y.e.y.y.( % .         . y.u.y.u.y.%.        D u.y.y.0     d y.u.t         . & N P ~ &.",
"F.y.y.y.y.y.y.y.y.Y             o u.y.y.y.y./         R u.u.u.:     o = 4 O   ; n s Z ~ p.z.j.j.",
"N.y.y.y.e.y.y.y.y.Y             & y.y.u.y.y.Q         X.y.u.y.*     = ; $ & 9 m Q %.r.j.j.x.V.C.",
"M.u.y.y.y.e.y.y.y.Y             = y.y.y.y.y.F         & 4 y Z .     9 n Z U X.2.C.C.x.k.j.h.y.y.",
"n.y.e.y.y.y.y.y.y.Y             : y.y.u.u.y.C         7 2 & o O t I / =.9.r.j.z.x.C.A.A.A.A.A.A.",
"n.y.y.y.y.y.e.y.y.I             2 6.r.y.y.y.u       . S P P P Z M E s.j.h.h.u.u.u.y.u.u.j.z.x.C.",
"b.u.y.e.y.y.y.y.y.I             o & ; r M ~ r     . o ; y P ..f.S.S.S.S.A.C.V.z.j.h.u.u.u.y.y.y.",
"b.u.y.y.y.e.y.y.y.m             ; S M 9 = o . u X.0.t.u.h.u.u.h.j.x.C.A.S.S.S.S.S.S.C.C.z.j.j.u.",
"v.y.y.y.y.y.y.y.e.m             2 P P P P S s 7 y ..u.h.h.h.h.u.u.h.y.h.h.z.V.C.S.S.S.S.S.S.A.A.",
"c.j.y.e.y.y.y.y.y.m             & p S P P U &.l.S.A.V.z.j.h.h.h.u.u.u.u.u.u.h.u.u.j.z.C.A.A.S.S.",
"[ 3.;.U U @.q.e.y.m       . o & 4 t N | a.S.S.S.S.S.S.S.A.C.x.j.j.h.h.h.u.h.u.u.u.h.h.u.h.j.z.x.",
"s S P P M 7 4 s U y - B o.8.a.h.h.h.h.h.h.j.x.A.S.D.S.D.S.D.S.S.C.V.z.j.h.h.h.u.u.u.u.h.u.h.u.h.",
"p P S P S n 7 O O = N O.t.j.j.a.a.0.a.0.0.a.0.a.j.3._ } Z.S.S.S.S.D.S.A.C.x.s.t : : : 3 +.u.u.u.",
"p S Z 2 .           . 9 8.( .                   %       % c.S.S.D.S.S.D.S.S.h   X X @   - u.u.u.",
"y y .   # c K.L.J.j     f 3   l l l l l l l l <   > L.v   - z.C.A.S.S.S.S.S.6   (.).).@ * j.j.h.",
"o   X P._._._._._._.!.,     > _._._._._._._._.J.  T._._.k   i.j.j.z.C.A.S.S.% # _._.(.  q A.C.x.",
"  @ !._._._._._._._._.(.>   k _._._._._._._._.l   Y._._.j   o O + O + o + +   1 _._.T.  q } ` ` ",
"  I._._._./.J.c U._._.(.j   1 K.K./._._.Q.K.K.>   # K.z                       c _._.P.          ",
"> _._._.Q.X       x Y.#           /._._.c       X L.L.J.      > L.!.^.Y.k     L._._.c   > K.L.L.",
"b _._._.,                       @ _._._.1       1 _._.!.    j )._._._._.!.    T._._.j @ ~._._.Y.",
"U._._.~.    > !.!.!.!.!.Q.X     1 _._._.#       x _._.I.  @ (._._.^.P.!.I.  X ^._._.> !._._.Y.X ",
"T._._.!.    l _._._._._.(.      z _._.(.X       K._._.b   c _._.^.@     ,   X _._.).T._._.Y.X . ",
"I._._.).X   l T.T.)._._.T.      K._._.Q.        Y._._.l   L._._.K.          , _._._._._.^.X   / ",
"x _._._.P.      j _._._.x       Y._._.I.        ~._._.,   L._._.P.          z _._.Y.(._._.k   T ",
"X ^._._._./.U.!._._._.~.X       ~._._.v       @ _._.).X   x _._._.b z I.X   J._._.b c _._.^.@ o ",
"  < (._._._._._._._./.,       X )._._.k       , _._.~.    X ~._._._._.~.    U._._.l X ^._._.L.  ",
"i   # L.(._._._.(.L.@         > ^.^.^.>       j ~.^.P.      > T._._._.P.    Y.^.^.>   l ^.^.~., ",
"j.V .   X # , #                                                 @ , @                           ",
"j.a.&.d : O o o : 0 0 0 0 0 0 0 0 0 w w e e e e e e e e e e e 5 + o * 5 w w w t 0 0 t t 0 0 0 t ",
"a.8.=.=.*.=.=.=.=.=.*.=.=.=.=.=.=.=.&.:.:.2.3.3.3.3.3.3.3.3.3.3.3.3.2.2.2.2.:.:.:.>.&.=.=.=.*.*.",
"8.=.=.=.=.=.=.=.=.=.=.=.=.=.%.=.=.=.&.&.;.:.:.<.1.1.1.1.1.1.1.1.3.3.1.1.<.<.2.:.:.:.:.>.>.&.=.=.",
">.>.&.&.;.&.&.&.&.&.;.&.&.&.;.&.&.&.;.&.;.;.:.:.<.1.<.<.1.1.<.<.<.1.<.<.<.<.2.2.:.:.:.:.;.;.;.,.",
":.:.:.:.:.:.:.:.:.:.:.:.:.:.:.:.:.:.:.:.:.:.:.:.:.:.:.:.:.:.:.:.:.:.:.:.:.:.:.:.:.:.:.:.:.:.:.:.",
":.:.:.:.:.:.:.:.:.:.:.:.:.:.:.:.:.:.:.:.:.:.:.:.:.:.:.:.:.:.:.:.:.:.:.:.:.:.:.:.:.:.:.:.:.:.:.:.",
":.:.:.:.:.:.:.:.:.:.:.:.:.:.:.:.:.:.:.:.:.:.:.:.:.:.:.:.:.:.:.:.:.:.:.:.:.:.:.:.:.:.:.:.:.:.:.:."
};
