/* XPM */
static char *icon64x64[] = {
/* columns rows colors chars-per-pixel */
"64 64 199 2",
"   c #000000",
".  c #0B0000",
"X  c #0B0B0B",
"o  c #130101",
"O  c #1B0101",
"+  c #1A0A0A",
"@  c #121212",
"#  c #1A1A1A",
"$  c #230000",
"%  c #230A0A",
"&  c #2E0000",
"*  c #2D1010",
"=  c #330303",
"-  c #330909",
";  c #3D0000",
":  c #3C0A0A",
">  c #3C1616",
",  c #252525",
"<  c #2B2B2B",
"1  c #333333",
"2  c #3C3C3C",
"3  c #430000",
"4  c #430909",
"5  c #4B0101",
"6  c #4E0A0A",
"7  c #421414",
"8  c #431818",
"9  c #4E1515",
"0  c #510202",
"q  c #5B0000",
"w  c #5B0A0A",
"e  c #541414",
"r  c #581B1B",
"t  c #630101",
"y  c #630909",
"u  c #690101",
"i  c #6C0B0B",
"p  c #651414",
"a  c #6C1111",
"s  c #710000",
"d  c #760A0A",
"f  c #790101",
"g  c #7D0D0D",
"h  c #711010",
"j  c #721A1A",
"k  c #7D1313",
"l  c #7E1A1A",
"z  c #662525",
"x  c #6F2929",
"c  c #712525",
"v  c #7D2222",
"b  c #434343",
"n  c #4B4B4B",
"m  c #535353",
"M  c #5B5B5B",
"N  c #626262",
"B  c #6C6C6C",
"V  c #737373",
"C  c #7B7B7B",
"Z  c #820000",
"A  c #820A0A",
"S  c #8A0101",
"D  c #8E0A0A",
"F  c #861010",
"G  c #8B1010",
"H  c #930000",
"J  c #940C0C",
"K  c #9C0000",
"L  c #9B0D0D",
"P  c #921414",
"I  c #911B1B",
"U  c #9C1010",
"Y  c #822E2E",
"T  c #8E2525",
"R  c #863232",
"E  c #8F3131",
"W  c #972525",
"Q  c #943434",
"!  c #9C3A3A",
"~  c #A00000",
"^  c #A40D0D",
"/  c #AC0202",
"(  c #AC0D0D",
")  c #A31414",
"_  c #A41A1A",
"`  c #AB1414",
"'  c #AF1818",
"]  c #B30303",
"[  c #B30909",
"{  c #BA0303",
"}  c #BD0D0D",
"|  c #B31313",
" . c #B21C1C",
".. c #B81212",
"X. c #B91C1C",
"o. c #A62525",
"O. c #A02929",
"+. c #AD2A2A",
"@. c #A43838",
"#. c #B72929",
"$. c #B83F3F",
"%. c #C50000",
"&. c #C20C0C",
"*. c #C80000",
"=. c #CA0E0E",
"-. c #C11616",
";. c #C61919",
":. c #CD1414",
">. c #C91B1B",
",. c #D10000",
"<. c #D30D0D",
"1. c #DB0303",
"2. c #DF0D0D",
"3. c #D01414",
"4. c #D61919",
"5. c #D91515",
"6. c #D91919",
"7. c #C82121",
"8. c #C82929",
"9. c #C63E3E",
"0. c #C93333",
"q. c #C93D3D",
"w. c #D62121",
"e. c #D72B2B",
"r. c #D92222",
"t. c #D92B2B",
"y. c #D73333",
"u. c #D63838",
"i. c #D93333",
"p. c #D83939",
"a. c #E20000",
"s. c #E70F0F",
"d. c #EB0101",
"f. c #E90D0D",
"g. c #E01111",
"h. c #E21E1E",
"j. c #EB1313",
"k. c #EB1A1A",
"l. c #F40202",
"z. c #F70B0B",
"x. c #FA0606",
"c. c #FC0B0B",
"v. c #F01212",
"b. c #F31C1C",
"n. c #FE1414",
"m. c #FE1D1D",
"M. c #E42020",
"N. c #E72E2E",
"B. c #EB2121",
"V. c #E03737",
"C. c #E43F3F",
"Z. c #E93131",
"A. c #EC3838",
"S. c #F32424",
"D. c #F02D2D",
"F. c #FE2323",
"G. c #FE2B2B",
"H. c #F33535",
"J. c #F23A3A",
"K. c #FE3434",
"L. c #FE3A3A",
"P. c #CB4444",
"I. c #CA4A4A",
"U. c #CC5555",
"Y. c #DB5656",
"T. c #E84E4E",
"R. c #E25656",
"E. c #E95757",
"W. c #F54242",
"Q. c #F44A4A",
"!. c #FE4343",
"~. c #FF4A4A",
"^. c #F05454",
"/. c #F25A5A",
"(. c #FE5353",
"). c #FE5C5C",
"_. c #FF6363",
"`. c #FE6C6C",
"'. c #FF7373",
"]. c #FF7B7B",
"[. c #838383",
"{. c #8B8B8B",
"}. c #939393",
"|. c #9B9B9B",
" X c #A4A4A4",
".X c #AAAAAA",
"XX c #B5B5B5",
"oX c #BBBBBB",
"OX c #FF8383",
"+X c #FF8B8B",
"@X c #FF9090",
"#X c #C2C2C2",
"$X c #CBCBCB",
"%X c #D3D3D3",
"&X c #DDDDDD",
"*X c #E4E4E4",
"=X c #ECECEC",
"-X c #F3F3F3",
";X c #FEFEFE",
/* pixels */
"*.*.*.*.*.*.*.*.*.*.*.*.*.*.*.*.*.*.*.*.*.*.*.*.*.*.*.*.*.*.*.*.*.*.*.*.*.*.*.*.*.*.*.*.*.*.*.*.*.*.*.*.*.*.*.*.*.*.*.*.*.*.*.%.",
"*.*.*.*.*.*.*.*.*.*.*.*.*.*.*.*.*.*.*.*.*.*.*.*.*.*.*.*.*.*.*.*.*.*.*.*.*.*.*.*.*.*.*.*.*.*.*.*.*.*.*.*.*.*.*.*.%.*.*.%.*.*.*.*.",
"*.*.*.*.*.*.*.*.*.*.*.*.*.*.*.*.*.*.*.*.*.*.*.*.*.*.*.*.*.*.*.*.*.*.*.*.*.*.*.*.*.*.*.*.*.*.*.*.*.*.*.*.*.*.*.*.*.*.*.*.%.*.*.*.",
"*.*.*.*.*.*.*.*.*.*.*.*.*.*.*.*.*.*.*.*.*.*.*.*.*.*.*.*.*.*.*.*.*.*.*.*.*.*.*.*.*.*.*.*.*.*.*.*.*.*.*.*.*.*.*.*.*.*.*.*.*.*.*.*.",
"*.*.*.*.*.*.*.*.*.*.*.*.*.*.*.*.*.*.*.*.*.*.*.*.*.*.*.*.*.*.*.*.*.*.*.*.*.*.*.*.*.*.*.*.*.*.*.*.*.*.*.*.*.*.*.*.*.*.*.*.*.*.*.*.",
",.*.,.,.,.,.,.*.,.,.*.*.*.*.,.*.*.*.*.,.*.,.*.*.*.*.*.*.,.*.*.*.,.*.*.*.*.*.*.*.*.*.*.*.*.*.*.*.%.*.*.*.%.%.*.*.%.*.*.*.{ *.%.%.",
"c.c.c.c.c.c.c.c.c.c.c.c.c.c.c.x.x.c.x.c.x.c.c.l.x.x.l.l.x.l.l.l.l.l.l.d.l.d.d.d.d.d.d.d.d.d.f.d.a.d.d.d.a.a.d.a.a.a.a.a.a.a.1.1.",
"~.~.~.~.~.!.~.!.L.!.L.L.L.L.L.K.K.K.K.G.K.G.G.G.G.F.G.F.F.F.F.F.F.m.m.m.m.n.m.m.n.m.n.n.n.c.c.c.c.c.c.c.c.c.c.c.x.c.x.x.x.x.x.x.",
"].].'.'.'.'.'.`.`._._._.).).).).).(.(.(.(.(.~.~.~.!.~.!.!.!.!.!.L.L.L.L.L.K.K.K.K.K.K.G.G.G.G.G.G.G.F.F.F.F.F.F.F.m.F.m.F.F.G.K.",
"+X+X+X+XOXOX].].].].].'.'.'.`.`.`._._._._._._.).).).).(.(.(.(.~.(.~.~.~.~.!.~.!.!.!.!.!.!.L.!.L.L.L.L.L.L.K.K.K.K.L.!.!.!.Q.q.C.",
"+X+X+X+XOXOXOX].].].].].'.'.'.'.'.`.`.`.`.`._._._._.)._.).).).).).(.).(.(.(.(.(.~.(.~.~.~.~.~.~.K.K.L.L.L.K.L.L.J.W l Z.L.I   O.",
"+X+XOXOXOX].].].].].].'.'.'.'.'.'.'.`.`._.`.`._._._._._._._.).).).).).).).(.(.(.).G.G.G.K.L.K.K.L.L.p.T p g F.F.|     D.L.p   0.",
"].].].].].].].].].'.'.'.'.'.'.`.`.`.'.`.`.`.`._.`._.`._._._._.).K.L.K.L.!.!.~.~.~.~.Q.p.+.k | F.F.F.A     w F.F.P   O K.K.:   J.",
"].].].].'.'.'.'.'.'.'.'.'.'.'.`.'.`.`._._._.).).).(.).(.(.).).).K.G.G.F.b.m.n.m.m.m.4       i m.m.m.y     A F.F.h   : K.K.+ O Z.",
"].'.'.'.'.'.'.'.'.'.'.`.`.`.`.`.`.`.`.!.m.m.F.G.G.K.K.!.!.~.Q.$.E x 8 + & m.m.m.m.m.=       J F.F.m.6     ) F.F.4   w K.Z.  . 5 ",
"'.'.'.`.`._._.).).).).).).)._._._._._.L.m.n.n.n.m.n.n.n.n.m.U           : m.n.m.m.m..       ` m.m.m.%     ;.F.F.O   O 5 5   $ 5 ",
"'.L.F.K.!.!.(.).).).).).).).).).).^.I.@.c e A n.m.n.n.n.m.n.A           0 m.n.m.m.m.        :.m.m.b..     ( 5.5..   o O o   = s ",
"`.L.n.c.c.n.c.n.m.F.K.K.W.! x > + .         q m.n.n.m.n.n.n.A           u m.m.m.m.5.        k.m.F.k.          .     u Z f H H &.",
"'.K.c.n.n.c.n.n.n.n.n.n.5.                  i n.n.m.n.n.m.m.w           A m.n.m.m.:.      . <.g.v...    . O O . & 5 f ^ } j.b.G.",
"`.K.n.n.n.n.n.n.n.n.c.n.s.                  d m.n.m.n.m.n.n.0           J m.m.m.m.L           . O O     $ S K ~ K / X.i.!.L.K.G.",
"E.K.n.n.n.n.c.n.n.n.c.n.g.                  A n.m.n.n.n.m.n.0           [ m.m.m.m.U       o $ O     O u d L ` =.f.F.K.L.!.~.(.(.",
"R.L.n.n.n.n.n.n.n.n.n.n.g.                  J n.n.n.m.n.n.m.O           u / &.2.z.q       ; ~ K ~ H H Z ~ w.G.G.m.m.m.n.n.n.n.m.",
"Y.K.n.n.n.n.n.n.c.n.n.n.g.                  L n.n.m.n.n.n.m.O               . . $ o     . O ; q H ] 3.H.).).).).).~.~.!.L.K.G.m.",
"U.L.c.n.n.n.c.n.n.n.n.c.g.                  ^ n.n.n.m.m.n.n.o           f t 5 = $ . 0 J 3.5.m.m.m.m.m.m.G.K.L.!.~.).).(.(.(.).(.",
"U.L.c.n.c.n.n.n.c.n.n.n.g.                  [ c.m.n.n.m.n.k.          . H K ~ ~ K K Z s A ;.m.m.m.m.m.m.m.m.m.m.m.m.F.G.K.!.!.(.",
"I.L.n.n.n.n.n.n.n.n.c.n.g.                  = t H { 1.f.z.j.        . . q u S K ~ ] 4.W.).).).(.!.L.K.F.m.m.m.m.m.m.m.m.m.n.m.m.",
"I.L.n.n.n.n.n.n.c.n.n.n.=.                  q 3 $ . o & 5 u     . $ 0 w g J ( 3.b.K.~.).).).).).).).).).(.!.L.K.G.F.m.m.n.m.m.m.",
"P.!.n.c.n.n.c.n.n.n.n.n.(                   Z ~ K H u ; O . = ^ b.F.F.F.m.F.m.m.m.m.m.F.G.K.!.(.).).).).).).).).(.(.~.!.K.G.F.m.",
"q.L.n.n.n.n.n.n.n.n.n.c.`                   S ~ ~ ~ ~ ~ H Z q ; ; S f.F.F.F.F.F.m.m.F.m.m.F.m.F.F.K.L.~.(.).).).).).).).).).(.~.",
"P.L.c.n.n.n.n.c.n.n.n.n.[                   H K ~ ~ ~ ~ ~ ~ / 4.A.!.K.G.F.F.F.F.F.F.m.F.m.m.m.m.F.m.m.F.F.G.K.!.~.).).).).).).).",
"9.(.K.n.d.c.c.m.n.c.n.n.(                 . $ 3 s H ~ / 3.H.(._.)._.).(.~.L.G.G.F.F.F.F.F.F.m.F.m.m.m.F.m.F.m.F.F.F.K.L.~.(.).).",
"o.i.w.;.~ f K ,.f.c.c.n.(           . O = 0 u g L ..k.L.).).).).).).)._._.).(.(.!.K.G.F.F.F.F.F.m.F.m.m.m.F.m.m.m.F.m.m.F.F.G.K.",
"u ~ ~ ~ ~ H t 3 q Z / *.~   + a ` ;.M.B.m.F.F.F.F.F.F.F.G.L.~.)._.).).)._._.).).).).(.~.L.K.G.F.F.F.F.m.m.F.m.m.F.m.m.m.F.m.F.m.",
"u ~ ~ ~ ~ ~ ~ S q = $ ; 0 D b.F.G.G.G.G.G.F.F.F.F.F.F.F.F.F.F.G.L.(.)._.).).)._._.).).).).(.~.!.K.G.F.F.6.) ) ) ) ) 4.m.m.m.F.m.",
"t ~ ~ ~ ~ H q 3 $ o . . . O 3 f =.m.B._ P I P P P P P P P P P P >.X.e * > R /.).).).)._.).).).).).(.~.#..           . _ m.F.m.m.",
"q ~ ~ Z =                   . D S.S.:                                       * T.)._.).).)._._.).).).).8   X @ X @ X   = m.m.m.F.",
"t K 0 .     X 2 N V B m #       k  .    # # # # # # # # # # # X     < C M     e K.~.(.).).)._.).).).).+   {.;X-X-XV   - G.F.F.m.",
"$ =     # }.-X;X;X;X;X;X;X.X,     O   # ;X;X;X;X;X;X;X;X;X;X;XB   , -X;X;X[.  . B.F.G.L.~.(.).)._.).E.    XX;X;X;Xn   r ~.!.K.K.",
".     m =X;X;X;X;X;X;X;X;X;X-Xn       b ;X;X;X;X;X;X;X;X;X;X;Xb   B ;X;X;X%X    _ >.>.>.7.8.0.9.P.I.!     &X;X;X;X,   Y (.(.(.~.",
"    n ;X;X;X;X;X;X;X;X;X;X;X;X;Xb     B ;X;X;X;X;X;X;X;X;X;X;X#   2 ;X;X;X X                            @ -X;X;X-X    z Q Q Q Q ",
"  , =X;X;X;X;X;XXX{. X*X;X;X;X;XC     B XXXXoX;X;X;X;X%XoXXX.X      N oX|.@                             < ;X;X;X$X              ",
"   X;X;X;X;X$X,       X  X;X&Xb             # ;X;X;X;Xn           @ # # #             < N C V 2         M ;X;X;X X      # # # # ",
"# ;X;X;X;X*X#             C @               b ;X;X;X;X<           %X;X;X;X1       < oX;X;X;X;X;X%X#     C ;X;X;XC     [.;X;X;X;X",
"M ;X;X;X;XV                                 V ;X;X;X-X          X -X;X;X;XX     1 -X;X;X;X;X;X;X;XX     .X;X;X;Xm   B ;X;X;X;XV ",
"{.;X;X;X;X<        XXXXXXXXXXXXXXXb         }.;X;X;X%X          , ;X;X;X&X    X &X;X;X;X;X%X$X;X&X      %X;X;X;X< m ;X;X;X;XV   ",
" X;X;X;X;X@     @ -X;X;X;X;X;X;X;Xn         #X;X;X;X.X          n ;X;X;XoX    N ;X;X;X;Xm     1 {.    X =X;X;X-Xn -X;X;X;XC     ",
"|.;X;X;X;X#     < ;X;X;X;X;X;X;X;X,         *X;X;X;XC           C ;X;X;X{.    .X;X;X;X X              , ;X;X;X-X=X;X;X;XC     4 ",
"C ;X;X;X;XN     1  X.X.X*X;X;X;X*X        @ ;X;X;X;XM           |.;X;X;XB     $X;X;X;XM               b ;X;X;X;X;X;X;X#X    - S.",
"2 ;X;X;X;X&X#         1 -X;X;X;X}.        2 ;X;X;X;X<           $X;X;X;X2     $X;X;X;XB               V ;X;X;X.X-X;X;X;Xn   o M.",
"  %X;X;X;X;X*XV 2 n {.-X;X;X;X;X<         N ;X;X;X;XX           *X;X;X;X#     .X;X;X;X%X#     m X     |.;X;X;XN C ;X;X;X&XX   6 ",
"  2 ;X;X;X;X;X;X;X;X;X;X;X;X;XC           {.;X;X;X&X          # ;X;X;X*X      m ;X;X;X;X-X$X*X*X      #X;X;X;X2 @ *X;X;X;X{.    ",
"    M -X;X;X;X;X;X;X;X;X;X;X{.            XX;X;X;XXX          b ;X;X;X#X        #X;X;X;X;X;X;X#X      *X;X;X;X#   V ;X;X;X;X2   ",
"p     < XX;X;X;X;X;X;X;X%Xm               &X;X;X;X{.          B ;X;X;X|.        @ XX;X;X;X;X;X|.    # ;X;X;X*X    X &X;X;X;X%X  ",
"G.a   .   # M C {.[.B 1                   , , , , @           @ , < , @             2 V {.C m X     X , , , #       # , , , , X ",
"G.S. .-                                                                                                                         ",
"S.S.B.h.| i : % + O & w k g k F k g g g g k k k k l l v v v v v v v v v v v v v v v 9 % O % 7 j T l l k k k k k k D g g g g g A ",
"S.M.h.6.6.5.4.4.5.6.4.4.6.6.6.6.4.4.6.4.6.4.4.4.r.w.e.e.i.u.u.u.p.p.p.p.p.p.p.p.p.p.p.p.u.u.i.e.i.e.e.t.t.r.r.w.w.6.4.4.5.5.5.6.",
"B.M.6.6.4.4.4.4.5.4.4.4.4.4.4.5.4.4.5.4.4.5.4.4.4.4.r.e.t.y.i.u.u.p.u.u.u.u.u.p.u.u.u.u.u.u.u.y.y.y.e.e.e.e.t.e.w.r.r.r.4.4.6.5.",
"M.6.4.4.4.4.4.4.4.4.4.4.4.4.4.4.4.4.5.4.4.4.4.4.4.4.4.r.w.e.y.y.u.u.u.u.u.u.u.u.u.u.u.u.u.u.u.u.u.u.y.y.y.e.e.e.e.e.r.w.w.w.6.r.",
"r.w.4.r.r.4.w.r.r.4.r.4.4.w.r.4.w.4.r.r.4.r.r.4.w.w.r.r.e.w.e.e.e.y.u.y.y.y.y.y.y.y.y.y.i.y.y.y.y.y.y.y.y.e.e.y.e.e.e.w.r.r.w.N.",
"e.e.e.e.e.e.e.e.e.e.e.e.e.e.e.e.e.e.e.e.e.e.e.e.e.e.e.e.e.e.e.e.e.e.e.e.e.e.e.e.e.e.e.e.e.e.e.e.e.e.e.e.e.e.e.e.e.e.e.e.e.e.e.e.",
"e.e.e.e.e.e.e.e.e.e.e.e.e.e.e.e.e.e.e.e.e.e.e.e.e.e.e.e.e.e.e.e.e.e.e.e.e.e.e.e.e.e.e.e.e.e.e.e.e.e.e.e.e.e.e.e.e.e.e.e.e.e.e.e.",
"e.e.e.e.e.e.e.e.e.e.e.e.e.e.e.e.e.e.e.e.e.e.y.e.e.e.e.e.e.e.e.e.e.e.e.e.e.e.e.e.e.e.e.e.e.e.e.e.e.e.e.e.e.e.e.e.e.e.e.e.e.e.e.e.",
"e.e.e.e.e.e.e.e.e.e.e.e.e.e.e.e.e.e.e.e.e.e.e.e.e.e.e.e.e.e.e.e.e.e.e.e.e.e.e.e.e.e.e.e.e.e.e.e.e.e.e.e.e.e.e.e.e.e.e.e.e.e.e.e."
};
